<svg viewBox="0 0 16 17" fill="none" xmlns="http://www.w3.org/2000/svg">
  <path
    d="M8 16.0825C12.4183 16.0825 16 12.5008 16 8.08252C16 3.66424 12.4183 0.0825195 8 0.0825195C3.58172 0.0825195 0 3.66424 0 8.08252C0 12.5008 3.58172 16.0825 8 16.0825Z"
    fill="#F3BA2F" />
  <path
    d="M6.058 7.28452L8 5.34252L9.943 7.28552L11.073 6.15552L8 3.08252L4.928 6.15452L6.058 7.28452ZM3 8.08252L4.13 6.95252L5.26 8.08252L4.13 9.21252L3 8.08252ZM6.058 8.88052L8 10.8225L9.943 8.87952L11.073 10.009L8 13.0825L4.928 10.0105L4.9265 10.009L6.058 8.88052ZM10.74 8.08252L11.87 6.95252L13 8.08252L11.87 9.21252L10.74 8.08252ZM9.146 8.08152H9.147V8.08252L8 9.22952L6.8545 8.08452L6.8525 8.08252L6.8545 8.08102L7.055 7.88002L7.1525 7.78252L8 6.93552L9.1465 8.08202L9.146 8.08152Z"
    fill="white" />
</svg>