<svg viewBox="0 0 24 24" fill="none" xmlns="http://www.w3.org/2000/svg">
<path fill-rule="evenodd" clip-rule="evenodd" d="M3.90002 8.6999C3.90002 6.04894 6.04906 3.8999 8.70002 3.8999C11.351 3.8999 13.5 6.04894 13.5 8.6999C13.5 11.3509 11.351 13.4999 8.70002 13.4999C6.04906 13.4999 3.90002 11.3509 3.90002 8.6999ZM8.70002 0.899902C4.3922 0.899902 0.900024 4.39208 0.900024 8.6999C0.900024 13.0077 4.3922 16.4999 8.70002 16.4999C10.3117 16.4999 11.8092 16.0111 13.0524 15.1736L19.9394 22.0606C20.5252 22.6463 21.4749 22.6463 22.0607 22.0606C22.6465 21.4748 22.6465 20.525 22.0607 19.9392L15.1737 13.0523C16.0112 11.8091 16.5 10.3116 16.5 8.6999C16.5 4.39208 13.0078 0.899902 8.70002 0.899902Z" fill="url(#paint0_linear_635_25075)"/>
<defs>
<linearGradient id="paint0_linear_635_25075" x1="0.900024" y1="0.899902" x2="25.5236" y2="5.20468" gradientUnits="userSpaceOnUse">
<stop stop-color="#CD28E8"/>
<stop offset="1" stop-color="#0BEBD6"/>
</linearGradient>
</defs>
</svg>
