<svg viewBox="0 0 40 40" fill="none" xmlns="http://www.w3.org/2000/svg">
<ellipse cx="20.0127" cy="19.9584" rx="19.3702" ry="19.3949" fill="#6AC915"/>
<path d="M20 40C8.97212 40 0 31.0279 0 20C0 8.97212 8.97212 0 20 0C31.0279 0 40 8.97212 40 20C40 31.0279 31.0279 40 20 40ZM20 1.32895C9.70487 1.32895 1.32895 9.70487 1.32895 20C1.32895 30.2951 9.70487 38.6706 20 38.6706C30.2951 38.6706 38.6711 30.2946 38.6711 19.9995C38.6711 9.70438 30.2946 1.32895 20 1.32895Z" fill="#49C00F"/>
<path d="M30.5359 10.3089C29.3835 9.13136 26.9602 8.91465 25.837 10.3089C23.904 12.708 21.9709 15.1072 20.0379 17.5063C19.1176 18.6487 18.1968 19.7911 17.2766 20.9335C16.95 21.3393 16.5611 21.9473 16.1371 22.5124C16.0545 22.4273 15.9714 22.3417 15.8883 22.2566C15.2634 21.6144 14.639 20.9726 14.0141 20.3304C11.0262 17.2599 6.32934 21.9612 9.31477 25.0292C10.8565 26.613 12.4308 28.8276 14.5207 29.6632C16.8125 30.5795 18.8455 29.4767 20.3189 27.6891C23.7709 23.5009 27.1314 19.234 30.5364 15.0077C31.6699 13.6001 31.8861 11.6888 30.5359 10.3089Z" fill="white"/>
<path d="M25.7024 2.38998C21.3282 0.517279 9.30038 0.0650603 3.18555 11.9924C8.93722 5.09042 15.1673 1.6028 25.7024 2.38998Z" fill="#BDDE23"/>
<path d="M15.9865 38.1464C26.1465 37.4127 33.1737 31.468 38.0353 24.2988C37.2496 28.7676 34.2301 32.8717 30.5712 35.3965C26.9124 37.9218 21.2305 39.4605 15.9375 38.1464" fill="#15A208"/>
</svg>
