<?xml version="1.0" encoding="utf-8"?>
<!-- Generator: Adobe Illustrator 25.0.1, SVG Export Plug-In . SVG Version: 6.00 Build 0)  -->
<svg version="1.1" id="Layer_1" xmlns="http://www.w3.org/2000/svg" xmlns:xlink="http://www.w3.org/1999/xlink" x="0px" y="0px"
	 viewBox="0 0 32 32" style="enable-background:new 0 0 32 32;" xml:space="preserve">
<style type="text/css">
	.st0{fill:#FDFE97;}
</style>
<g>
	<path id="binancedex" class="st0" d="M19,26.4V30L16,31.8L13,30v-3.5l3,1.8L19,26.4z M2.5,14.2l3,1.8v6.1l5.2,3.1v3.5l-8.2-4.8
		V14.2z M29.4,14.2v9.7l-8.3,4.8v-3.5l5.2-3.1V16L29.4,14.2z M21.1,9.4l3.1,1.8l0,0v3.5L19,17.8V24l-3,1.8L13,24v-6.2l-5.4-3.1v-3.5
		l3.1-1.8l5.2,3.1L21.1,9.4z M7.7,17.3l3,1.8v3.5l-3-1.8V17.3z M24.2,17.3v3.5l-3,1.8v-3.5L24.2,17.3z M5.5,6.3l3.1,1.8L5.5,9.9v3.5
		l-3-1.8V8.1L5.5,6.3z M26.4,6.3l3.1,1.8v3.5l-3.1,1.8V9.9l-3-1.8L26.4,6.3z M16,6.3L19,8.1L16,9.9l-3-1.8L16,6.3z M16,0.2L24.2,5
		l-3,1.8L16,3.7l-5.3,3.1L7.8,5L16,0.2z"/>
</g>
</svg>
